<svg width="33" height="19" viewBox="0 0 33 19" fill="none" xmlns="http://www.w3.org/2000/svg">
<g clip-path="url(#clip0_18_60)">
<path d="M26.5109 9.75594C26.5109 10.3133 26.073 10.7513 25.5156 10.7513L7.59889 10.7513C7.04148 10.7513 6.60352 10.3133 6.60352 9.75594C6.60352 9.19853 7.04148 8.76057 7.59889 8.76057L25.5156 8.76057C26.073 8.76057 26.5109 9.19853 26.5109 9.75594Z" fill="#ffffff"/>
<path d="M28.5012 9.75597C28.5028 9.88651 28.477 10.0159 28.4256 10.1359C28.3742 10.2559 28.2982 10.3639 28.2026 10.4527L21.235 17.4203C20.8368 17.8185 20.2197 17.8185 19.8216 17.4203C19.4234 17.0222 19.4234 16.405 19.8216 16.0069L26.0924 9.73606L19.8216 3.46523C19.4234 3.06708 19.4234 2.44995 19.8216 2.0518C20.2197 1.65366 20.8368 1.65366 21.235 2.0518L28.2026 9.0194C28.4017 9.21847 28.5012 9.47727 28.5012 9.71616V9.75597Z" fill="#ffffff"/>
</g>
<defs>
<clipPath id="clip0_18_60">
<rect width="17.9167" height="31.8519" fill="white" transform="matrix(0 -1 1 0 0.630859 18.7143)"/>
</clipPath>
</defs>
</svg>
